<svg width="33" height="32" viewBox="0 0 33 32" fill="none" xmlns="http://www.w3.org/2000/svg">
<path d="M29.6101 3.65222C28.8526 2.81139 27.9533 2.14438 26.9634 1.6893C25.9735 1.23423 24.9126 1 23.8411 1C22.7696 1 21.7087 1.23423 20.7188 1.6893C19.7289 2.14438 18.8296 2.81139 18.0721 3.65222L16.5001 5.39642L14.9281 3.65222C13.398 1.95459 11.3229 1.00088 9.15908 1.00088C6.99529 1.00088 4.92012 1.95459 3.39008 3.65222C1.86005 5.34984 1.00049 7.65231 1.00049 10.0531C1.00049 12.4539 1.86005 14.7564 3.39008 16.454L4.9621 18.1982L16.5001 31L28.0381 18.1982L29.6101 16.454C30.3679 15.6136 30.9691 14.6157 31.3792 13.5174C31.7894 12.4191 32.0005 11.2419 32.0005 10.0531C32.0005 8.86428 31.7894 7.68709 31.3792 6.5888C30.9691 5.49052 30.3679 4.49265 29.6101 3.65222V3.65222Z" stroke="#A1A1A1" stroke-width="2" stroke-linecap="round" stroke-linejoin="round"/>
</svg>
