<svg width="31" height="30" viewBox="0 0 31 30" fill="none" xmlns="http://www.w3.org/2000/svg">
<path d="M30.8247 28.1746C28.5571 24.2292 25.0625 21.4002 20.9843 20.0591C23.0016 18.8505 24.5689 17.009 25.4455 14.8172C26.3221 12.6255 26.4596 10.2048 25.8369 7.92681C25.2141 5.64883 23.8655 3.63956 21.9982 2.20755C20.1309 0.775552 17.8482 0 15.5005 0C13.1528 0 10.8701 0.775552 9.00276 2.20755C7.13546 3.63956 5.78688 5.64883 5.16412 7.92681C4.54136 10.2048 4.67886 12.6255 5.55549 14.8172C6.43212 17.009 7.99942 18.8505 10.0167 20.0591C5.93847 21.3987 2.44391 24.2277 0.176238 28.1746C0.0930789 28.311 0.0379199 28.4629 0.0140156 28.6211C-0.00988857 28.7794 -0.00205376 28.9408 0.0370578 29.096C0.0761694 29.2512 0.145766 29.3969 0.24174 29.5245C0.337714 29.6522 0.458122 29.7592 0.595861 29.8393C0.733599 29.9193 0.885877 29.9708 1.04371 29.9907C1.20154 30.0106 1.36174 29.9985 1.51483 29.955C1.66793 29.9116 1.81084 29.8378 1.93511 29.7378C2.05939 29.6379 2.16253 29.514 2.23843 29.3733C5.04361 24.4944 10.0018 21.5815 15.5005 21.5815C20.9992 21.5815 25.9574 24.4944 28.7625 29.3733C28.8385 29.514 28.9416 29.6379 29.0659 29.7378C29.1901 29.8378 29.333 29.9116 29.4861 29.955C29.6392 29.9985 29.7994 30.0106 29.9573 29.9907C30.1151 29.9708 30.2674 29.9193 30.4051 29.8393C30.5429 29.7592 30.6633 29.6522 30.7592 29.5245C30.8552 29.3969 30.9248 29.2512 30.9639 29.096C31.003 28.9408 31.0109 28.7794 30.987 28.6211C30.9631 28.4629 30.9079 28.311 30.8247 28.1746ZM7.16238 10.7928C7.16238 9.13315 7.6514 7.51079 8.56761 6.13087C9.48381 4.75094 10.786 3.67542 12.3096 3.04031C13.8332 2.4052 15.5097 2.23902 17.1272 2.5628C18.7446 2.88657 20.2303 3.68576 21.3964 4.85929C22.5625 6.03282 23.3567 7.52799 23.6784 9.15573C24.0001 10.7835 23.835 12.4707 23.2039 14.0039C22.5728 15.5372 21.5041 16.8478 20.1329 17.7698C18.7617 18.6918 17.1496 19.184 15.5005 19.184C13.2898 19.1816 11.1704 18.2968 9.60717 16.7236C8.04398 15.1505 7.16475 13.0175 7.16238 10.7928Z" fill="#A1A1A1"/>
</svg>
